<?xml version="1.0" encoding="UTF-8" standalone="no"?>
<svg
   xmlns:dc="http://purl.org/dc/elements/1.1/"
   xmlns:cc="http://creativecommons.org/ns#"
   xmlns:rdf="http://www.w3.org/1999/02/22-rdf-syntax-ns#"
   xmlns:svg="http://www.w3.org/2000/svg"
   xmlns="http://www.w3.org/2000/svg"
   xmlns:sodipodi="http://sodipodi.sourceforge.net/DTD/sodipodi-0.dtd"
   xmlns:inkscape="http://www.inkscape.org/namespaces/inkscape"
   version="1.1"
   width="231"
   height="221.421052549024"
   enable-background="new 0 0 1114.088 219.592"
   xml:space="preserve"
   id="svg1113"
   sodipodi:docname="placeholder.svg"
   inkscape:version="0.92.2 5c3e80d, 2017-08-06"><metadata
     id="metadata1119"><rdf:RDF><cc:Work
         rdf:about=""><dc:format>image/svg+xml</dc:format><dc:type
           rdf:resource="http://purl.org/dc/dcmitype/StillImage" /><dc:title></dc:title></cc:Work></rdf:RDF></metadata><defs
     id="defs1117" /><sodipodi:namedview
     pagecolor="#ffffff"
     bordercolor="#666666"
     borderopacity="1"
     objecttolerance="10"
     gridtolerance="10"
     guidetolerance="10"
     inkscape:pageopacity="0"
     inkscape:pageshadow="2"
     inkscape:window-width="1440"
     inkscape:window-height="781"
     id="namedview1115"
     showgrid="false"
     inkscape:zoom="1.0658427"
     inkscape:cx="56.092909"
     inkscape:cy="110.71053"
     inkscape:window-x="0"
     inkscape:window-y="1"
     inkscape:window-maximized="1"
     inkscape:current-layer="layer1" /><rect
     id="backgroundrect"
     width="100%"
     height="100%"
     x="0"
     y="0"
     fill="none"
     stroke="none"
     class=""
     style="" /><g
     id="svg_1"><path
       style="fill:#727874"
       inkscape:connector-curvature="0"
       id="svg_2"
       d="m 215.745,170.619 c 0.202,2.336 -1.64,4.344 -3.985,4.344 H 18.899 c -2.339,0 -4.179,-1.998 -3.986,-4.33 L 28.734,3.67 C 28.906,1.596 30.639,0 32.721,0 h 164.642 c 2.076,0 3.807,1.588 3.985,3.656 z" /><linearGradient
       gradientUnits="userSpaceOnUse"
       gradientTransform="scale(1.049171,0.95313345)"
       y2="46.65958"
       x2="33.618546"
       y1="199.55507"
       x1="176.31844"
       id="SVGID_1_"><stop
         id="stop1099"
         style="stop-color:#9CA29E"
         offset="0" /><stop
         id="stop1101"
         style="stop-color:#969B97"
         offset="1" /></linearGradient><path
       inkscape:connector-curvature="0"
       style="fill:url(#SVGID_1_)"
       id="svg_3"
       d="m 231.14,214.18 c 0.241,2.914 -2.059,5.412 -4.982,5.412 H 5 c -2.917,0 -5.215,-2.486 -4.984,-5.395 L 15.893,14.198 C 16.1,11.597 18.269,9.594 20.877,9.594 h 188.742 c 2.602,0 4.769,1.995 4.983,4.588 z" /></g><g
     inkscape:groupmode="layer"
     id="layer1"
     inkscape:label="Layer 1"
     style="display:inline"><g
       transform="matrix(0.18175497,0,0,0.18175497,25.530744,9.4005437)"
       id="layer1-8"
       inkscape:label="Layer 1"
       style="fill:#ffffff;fill-opacity:1"><path
         id="path4997"
         d="m 299.97185,755.71677 c -0.51563,-0.51767 -0.9375,-14.41591 -0.9375,-30.88496 0,-29.20733 -1.7772,-49.9859 -5.19185,-60.70163 -1.26855,-3.98093 -1.06791,-4.45838 4.0758,-9.69945 9.17694,-9.35062 24.04064,-13.36933 55.14617,-14.90997 l 18.40514,-0.91158 1.35169,3.55522 c 1.54649,4.06755 0.66439,8.90846 -2.20307,12.09031 -1.41792,1.5734 -3.93474,2.20135 -8.96512,2.23677 -3.84656,0.0271 -12.05626,1.18388 -18.24376,2.57063 -6.1875,1.38675 -15.56736,3.47395 -20.84414,4.63823 -5.27677,1.16428 -9.964,2.4916 -10.41606,2.9496 -0.45205,0.458 -0.14336,6.22362 0.68599,12.8125 l 1.5079,11.97977 h 4.64698 c 2.55585,0 7.40828,-0.83766 10.78317,-1.86147 3.37488,-1.0238 9.37053,-1.86755 13.32366,-1.875 l 7.1875,-0.0135 v 8.125 8.125 l -5.3125,2.1e-4 c -2.92188,1.3e-4 -9.72136,0.84388 -15.10996,1.875 -5.3886,1.03114 -10.02923,1.87479 -10.3125,1.87479 -0.28328,0 -0.51504,6.27414 -0.51504,13.94253 v 13.94252 l 16.5625,-1.07829 c 9.10937,-0.59306 23.03125,-1.10156 30.9375,-1.13002 l 14.375,-0.0517 0.38105,4.5716 c 0.32727,3.92648 -0.2019,5.00962 -3.75,7.67562 -5.24579,3.9416 -6.04622,4.08577 -39.75605,7.15994 -15.46875,1.41068 -30.09375,2.87284 -32.5,3.24924 -2.40625,0.3764 -4.79688,0.26082 -5.3125,-0.25685 z"
         style="fill:#ffffff;fill-opacity:1;stroke:none;stroke-opacity:1"
         inkscape:connector-curvature="0" /><path
         d="m 240.53186,679.56722 c 7.03039,-7.01021 11.13024,-12.95015 13.30084,-19.27049 1.20568,-3.51068 1.12655,-4.78949 -0.44469,-7.1875 -1.72215,-2.62835 -2.84232,-2.91701 -11.31955,-2.91701 -5.91742,0 -10.75339,0.69559 -13.03355,1.87471 l -3.62528,1.8747 -0.37514,18.61028 -0.37514,18.61027 4.80226,-2.67247 c 2.64124,-1.46988 7.62285,-5.48499 11.07025,-8.92249 z m 26.56787,72.1875 c -5.10217,-23.95161 -10.18944,-37.09466 -16.81336,-43.4375 -3.33656,-3.19499 -4.87531,-3.74501 -10.3966,-3.71632 -3.56423,0.0185 -8.44917,0.43913 -10.85542,0.9347 l -4.375,0.90101 v 22.81531 22.8153 l -4.61233,0.38347 c -2.53677,0.21092 -6.33365,-0.50666 -8.4375,-1.59459 l -3.82517,-1.97808 v -34.9679 c 0,-34.41698 -0.0404,-34.9679 -2.56208,-34.9679 -3.61398,0 -9.62665,-3.33272 -11.15087,-6.18076 -0.70788,-1.32269 -1.28705,-4.60747 -1.28705,-7.29952 0,-15.214 27.60079,-31.80473 52.73315,-31.69772 18.63177,0.0794 24.76685,5.25027 24.76685,20.87471 0,9.68473 -4.27289,20.10213 -11.8908,28.99005 l -4.55275,5.31178 4.03634,3.39635 c 12.66894,10.66021 17.31852,19.38516 21.83858,40.98011 1.87072,8.9375 3.67328,17.51562 4.00569,19.0625 0.57881,2.69354 0.25557,2.8125 -7.64252,2.8125 -7.98578,0 -8.27009,-0.10887 -8.97917,-3.4375 z"
         style="fill:#ffffff;fill-opacity:1;stroke:none;stroke-opacity:1"
         id="path4993"
         inkscape:connector-curvature="0" /><path
         id="path4991"
         d="m 408.71,753.40558 c -8.24086,-2.94066 -13.27621,-8.15073 -18.81066,-19.46336 -3.89962,-7.97094 -3.97417,-8.45684 -3.93162,-25.625 0.041,-16.545 0.25778,-18.06349 3.97248,-27.82564 7.6495,-20.10276 17.10404,-31.8585 28.83756,-35.85651 18.61956,-6.34434 32.72336,3.9891 32.74961,23.99464 0.006,4.96794 -0.21597,5.3114 -3.43052,5.29544 -6.39746,-0.0317 -8.81715,-1.44671 -13.00796,-7.6066 -4.62707,-6.80109 -6.76344,-7.99544 -11.25032,-6.28953 -4.45856,1.69514 -11.93163,10.53334 -13.53902,16.01222 -4.88149,16.63885 -5.31971,19.37207 -5.4755,34.15097 -0.13594,12.89625 0.22792,16.34413 2.08349,19.74278 2.60682,4.77466 8.87902,8.99583 13.37681,9.00253 4.61344,0.007 25.3464,-7.04081 33.89481,-11.52177 5.05507,-2.64979 7.84073,-3.488 8.70838,-2.62035 0.70166,0.70166 1.1061,4.87485 0.89877,9.27377 -0.32719,6.94192 -0.67806,7.94673 -2.6572,7.60945 -1.25412,-0.21372 -2.94162,0.14473 -3.75,0.79655 -1.99624,1.60967 -17.23933,7.60918 -26.45337,10.41174 -8.82194,2.6833 -15.69959,2.84389 -22.21574,0.51867 z"
         style="fill:#ffffff;fill-opacity:1;stroke:none;stroke-opacity:1"
         inkscape:connector-curvature="0" /><path
         d="m 516.55176,732.05146 c 10.59068,-9.58443 13.27138,-44.4653 5.0903,-66.23424 -3.76182,-10.00981 -8.62983,-13.91498 -15.69383,-12.58976 -12.94164,2.42786 -21.91388,21.62153 -21.91388,46.87877 0,15.59076 2.54478,26.0314 7.68637,31.5355 3.46258,3.7067 3.85404,3.80908 12.83202,3.3557 7.02513,-0.35475 9.92152,-1.06586 11.99902,-2.94597 z m -23.28572,21.11931 c -11.70694,-4.1519 -21.38435,-17.49479 -24.37218,-33.60355 -2.20342,-11.87979 -0.71702,-42.04819 2.52019,-51.15011 7.41123,-20.8378 20.12994,-31.97489 36.5158,-31.97489 13.86241,0 24.81346,12.56152 31.24112,35.83551 2.10157,7.60958 2.73531,13.5472 2.84599,26.66449 0.20047,23.75824 -3.41031,35.09876 -14.80258,46.49103 -9.17117,9.17116 -21.79385,12.04813 -33.94834,7.73752 z"
         style="fill:#ffffff;fill-opacity:1;stroke:none;stroke-opacity:1"
         id="path4987"
         inkscape:connector-curvature="0" /><path
         d="m 591.33154,679.69012 c 11.20392,-10.70138 16.91316,-23.53755 12.45281,-27.9979 -2.32186,-2.32186 -18.81264,-1.90655 -24.08259,0.60651 l -4.41741,2.10652 v 18.62043 18.62044 l 4.6875,-2.79155 c 2.57812,-1.53535 7.68999,-5.65935 11.35969,-9.16445 z m 27.17235,73.9396 c -0.24861,-0.85938 -1.12781,-4.9375 -1.9538,-9.0625 -2.3934,-11.95282 -7.28409,-25.46286 -11.36464,-31.39374 -5.12839,-7.45386 -9.82147,-9.72575 -17.91204,-8.67108 -13.25642,1.72807 -11.98906,-0.93586 -11.98906,25.20033 v 22.98949 h -4.43708 c -5.65272,0 -11.39002,-2.94837 -12.49168,-6.41941 -0.47078,-1.48325 -0.44663,-17.15544 0.0536,-34.82707 l 0.90961,-32.13025 -4.6965,-0.76213 c -7.00709,-1.1371 -10.58795,-5.1164 -10.58795,-11.7661 0,-6.53174 2.0864,-10.88189 7.70585,-16.06678 11.7538,-10.84485 28.01357,-17.01641 44.7173,-16.9729 13.27346,0.0346 19.26104,2.4451 22.66964,9.12653 5.38212,10.54982 1.87851,25.58306 -9.38729,40.27888 l -4.66535,6.08578 4.65689,3.83859 c 6.89071,5.67991 15.02445,17.3887 17.29138,24.89152 1.0965,3.62909 3.1806,12.22334 4.63134,19.09834 1.45074,6.875 2.9266,13.76562 3.27969,15.3125 0.61609,2.699 0.30665,2.8125 -7.66796,2.8125 -5.57357,0 -8.45879,-0.51451 -8.76195,-1.5625 z"
         style="fill:#ffffff;fill-opacity:1;stroke:none;stroke-opacity:1"
         id="path4983"
         inkscape:connector-curvature="0" /><path
         d="m 702.26214,734.47837 c 11.50266,-5.45848 15.75865,-11.2721 15.84733,-21.6472 0.0404,-4.72736 -0.78348,-8.6623 -2.52722,-12.07014 -5.44393,-10.63919 -22.01824,-22.04615 -38.7354,-26.65892 l -9.0625,-2.50062 v 34.45639 34.45639 l 12.79,-0.90676 c 10.8311,-0.76789 14.15277,-1.55347 21.68779,-5.12914 z m -48.70499,16.02635 c -0.38331,-2.57813 -1.01544,-12.28125 -1.4047,-21.5625 -0.38927,-9.28125 -1.32294,-26.09798 -2.0748,-37.3705 -1.22189,-18.31949 -1.68615,-20.96578 -4.37284,-24.92481 -1.65318,-2.43613 -2.70535,-5.21228 -2.33813,-6.16924 0.36722,-0.95695 0.66767,-2.28511 0.66767,-2.95146 0,-1.99374 8.28481,-4.83399 14.10036,-4.83399 10.16341,0 37.57185,10.89524 54.07682,21.49629 10.43677,6.70349 18.06681,14.98249 22.55854,24.47723 2.79736,5.91312 3.1974,8.18669 2.77657,15.77998 -0.83515,15.06931 -7.53694,24.73518 -22.41478,32.32841 -11.87021,6.05823 -24.44242,8.41809 -44.8476,8.41809 H 654.2541 Z"
         style="fill:#ffffff;fill-opacity:1;fill-rule:evenodd;stroke:none;stroke-opacity:1"
         id="path4979"
         inkscape:connector-curvature="0" /><path
         id="path4977"
         d="m 774.12834,753.90403 c -11.60134,-2.42484 -17.42348,-5.09507 -21.89084,-10.03991 -2.44924,-2.71101 -4.45315,-5.51555 -4.45315,-6.23233 0,-2.15848 5.97354,-7.43957 8.41505,-7.43957 1.25327,0 3.66947,0.97841 5.36931,2.17425 4.32013,3.03919 18.00415,6.41787 26.34059,6.50369 5.84927,0.0602 7.84529,-0.5403 12.14242,-3.65313 7.95159,-5.7601 9.62018,-9.14801 9.52844,-19.34656 -0.0503,-5.58191 -0.82386,-10.21526 -2.11422,-12.66198 l -2.03504,-3.85872 -8.51078,1.14444 c -23.2092,3.12092 -45.90146,-1.00652 -51.91942,-9.4435 -4.31539,-6.05004 -4.06595,-19.40048 0.50784,-27.18039 7.3444,-12.49266 21.57169,-21.1781 34.69103,-21.1781 3.33929,0 9.71592,1.12566 14.17027,2.50148 10.51312,3.24717 17.78525,10.57374 19.08266,19.22557 0.47361,3.15824 0.51579,6.64214 0.0937,7.742 -1.3799,3.59596 -10.39397,0.95174 -20.76187,-6.0904 -11.33455,-7.69869 -15.98733,-8.28256 -23.05348,-2.89295 -5.9233,4.51791 -9.43589,10.26635 -9.44185,15.4518 l -0.005,4.0625 h 26.39706 26.39705 l 4.67837,4.6875 c 8.72381,8.74087 11.63047,30.09352 6.10636,44.85805 -3.20763,8.57312 -12.54556,18.39317 -19.5025,20.50939 -6.33919,1.9283 -23.4153,2.58173 -30.23235,1.15687 z"
         style="fill:#ffffff;fill-opacity:1;stroke:none;stroke-opacity:1"
         inkscape:connector-curvature="0" /><path
         id="path4975"
         d="m 246.75367,611.43732 c -2.27823,-1.89879 -4.06092,-2.26339 -8.25558,-1.68845 -3.70494,0.50783 -6.7128,0.0865 -9.78243,-1.37008 l -4.43251,-2.10336 -0.74685,-62.10411 c -0.41076,-34.15725 -0.88861,-64.60654 -1.0619,-67.66506 -0.28765,-5.07734 0.0544,-5.81114 3.9323,-8.4375 7.56422,-5.1229 15.47555,-3.16409 19.62441,4.85892 l 1.98249,3.8337 3.4985,-6.12565 c 4.62015,-8.08959 12.80251,-16.13016 20.5902,-20.23338 5.54235,-2.9202 7.74685,-3.32369 18.18205,-3.32787 16.61941,-0.006 23.41295,2.53137 33.14254,12.38182 8.35237,8.45613 13.03803,17.08522 16.77206,30.88725 4.17879,15.44597 5.08585,28.59528 5.07471,73.56588 l -0.0112,43.15779 -7.17681,2.2105 c -9.32761,2.87295 -13.12624,2.76074 -16.04558,-0.47401 -2.19131,-2.42806 -2.34911,-4.4469 -1.97852,-25.3125 0.53671,-30.21909 -1.62463,-66.1412 -4.76795,-79.24449 -4.73372,-19.73545 -13.55277,-31.5545 -23.54453,-31.5545 -9.50991,0 -22.57653,19.09644 -29.61077,43.27517 -6.27704,21.57604 -10.6039,56.30045 -10.6039,85.09969 0,7.08133 -0.42188,12.85643 -0.9375,12.83355 -0.51563,-0.0229 -2.24505,-1.13136 -3.84318,-2.46331 z"
         style="fill:#ffffff;fill-opacity:1;stroke:none;stroke-opacity:1"
         inkscape:connector-curvature="0" /><path
         id="path4973"
         d="m 502.15935,610.17294 c -15.58035,-2.15528 -14.38865,-0.61106 -12.04319,-15.60572 0.90584,-5.79114 1.37704,-42.6713 1.39343,-109.0625 0.0234,-94.72256 0.14666,-100.30824 2.21226,-100.2357 1.20312,0.0422 6.125,0.75613 10.9375,1.58639 l 8.75,1.50957 0.81344,10.60113 c 0.44739,5.83061 0.87113,18.19486 0.94166,27.47611 0.0705,9.28125 0.49284,25.6656 0.93846,36.40967 l 0.81023,19.53468 5.48106,-4.18379 c 26.32541,-20.09463 53.50824,-9.52401 64.58283,25.11444 4.3185,13.50712 6.15311,29.53886 6.294,55 0.14447,26.11095 -2.20642,51.87367 -4.73382,51.8766 -0.75782,8.7e-4 -5.98162,-0.64171 -11.60845,-1.42798 l -10.23057,-1.42955 -0.39443,-45.75953 -0.39441,-45.75954 -3.53955,-7.20818 c -4.96935,-10.1199 -11.54829,-13.198 -19.46197,-9.10567 -9.75358,5.04377 -19.64389,23.34321 -24.01789,44.43885 -0.784,3.78125 -1.77538,20.65801 -2.20303,37.50391 l -0.77756,30.62891 z"
         style="fill:#ffffff;fill-opacity:1;stroke:none;stroke-opacity:1"
         inkscape:connector-curvature="0" /><path
         id="path4971"
         d="m 66.504525,570.50472 c -0.04465,-61.26579 -1.98616,-89.8552 -8.088758,-119.10979 -1.070182,-5.13025 -2.235978,-10.26646 -2.590656,-11.41382 -0.97954,-3.16878 13.04289,-17.43567 21.641276,-22.01855 18.470979,-9.84494 45.030513,-14.02034 89.182633,-14.02034 h 29.88533 v 8.58142 c 0,14.08743 -4.86901,17.7791 -23.16001,17.55985 -7.87073,-0.0944 -17.32061,1.49022 -44.96498,7.53979 -19.25,4.21259 -36.595222,8.00017 -38.544936,8.41683 -1.949715,0.41667 -3.872223,1.61048 -4.272241,2.65291 -0.776399,2.02326 1.28707,24.21362 3.687213,39.65195 l 1.453184,9.34725 h 5.299923 c 2.914957,0 12.517237,-1.44411 21.338387,-3.20915 8.82116,-1.76502 20.98096,-3.53712 27.02177,-3.93799 l 10.98331,-0.72885 -0.35831,13.0005 -0.3583,13.00049 -11.875,0.72205 c -6.53125,0.39712 -19.32812,2.34502 -28.4375,4.32869 l -16.562501,3.60665 v 26.6088 26.60881 l 16.562501,-0.0244 c 9.10938,-0.0134 23.875,-0.85154 32.8125,-1.86252 8.9375,-1.01097 27.07811,-1.84375 40.31249,-1.85061 l 24.0625,-0.0125 -0.007,3.4375 c -0.0136,6.70167 -2.54804,12.72722 -6.67838,15.8776 -7.35212,5.60774 -12.06057,6.3194 -103.63797,15.66452 -13.584056,1.38622 -26.94343,2.52038 -29.687472,2.52038 H 66.53436 l -0.02984,-40.9375 z"
         style="fill:#ffffff;fill-opacity:1;stroke:none;stroke-opacity:1"
         inkscape:connector-curvature="0" /><path
         id="path4969"
         d="m 855.61498,606.70416 -6.54437,-4.63694 -0.0181,-121.7324 -0.0182,-121.73242 5.33018,0.73059 c 9.27572,1.27137 14.91788,3.81515 18.54101,8.35922 l 3.48832,4.375 0.27148,115.01867 c 0.21156,89.63041 -0.071,115.65871 -1.28036,117.91833 -1.48529,2.77528 -8.25174,6.49381 -11.62298,6.38745 -0.88146,-0.0277 -4.54761,-2.13719 -8.14702,-4.6875 z"
         style="fill:#ffffff;fill-opacity:1;stroke:none;stroke-opacity:1"
         inkscape:connector-curvature="0" /><path
         id="path4967"
         d="m 913.11498,606.70416 -6.54437,-4.63694 -0.0181,-121.7324 -0.0181,-121.73242 5.33018,0.73059 c 9.27572,1.27137 14.91788,3.81515 18.54101,8.35922 l 3.48832,4.375 0.27148,115.01867 c 0.21156,89.63041 -0.071,115.65871 -1.28036,117.91833 -1.48529,2.77528 -8.25174,6.49381 -11.62298,6.38745 -0.88146,-0.0277 -4.54761,-2.13719 -8.14702,-4.6875 z"
         style="fill:#ffffff;fill-opacity:1;stroke:none;stroke-opacity:1"
         inkscape:connector-curvature="0" /><path
         id="path4965"
         d="m 425.67721,607.87069 c -23.4987,-8.11997 -32.94127,-28.11596 -32.84479,-69.55347 0.0266,-11.44393 1.24671,-24.77599 3.24294,-35.43729 l 0.78404,-4.18729 -17.38823,0.89589 c -20.67446,1.0652 -20.16093,1.36668 -21.7833,-12.78855 -0.61352,-5.35302 -1.36993,-11.56089 -1.68092,-13.79526 l -0.56543,-4.0625 h 22.42142 c 20.4559,0 22.43625,-0.19176 22.5907,-2.1875 0.0931,-1.20313 0.51497,-11.1875 0.9375,-22.1875 l 0.76821,-20 8.75,-1.0143 c 11.40579,-1.32216 17.65696,0.60754 21.09714,6.51256 2.28842,3.92805 2.3639,5.01644 1.00141,14.43988 -0.81045,5.60538 -1.47355,13.11553 -1.47355,16.68923 v 6.49763 h 18.75 18.75 v 15.03174 15.03175 l -19.6875,-0.34425 -19.6875,-0.34424 -2.16088,12.5 c -4.55871,26.37065 -4.96663,30.21347 -4.51174,42.50213 0.61251,16.54651 3.75508,23.35366 12.96053,28.07388 5.24755,2.69077 7.71408,3.14558 16.20101,2.98733 5.50609,-0.10263 13.80795,-1.01835 18.44858,-2.03486 9.70816,-2.12654 9.5277,-2.35993 7.06279,9.13355 -2.91374,13.58626 -13.84374,19.99353 -33.98468,19.92216 -7.73159,-0.0274 -13.64564,-0.77684 -17.99775,-2.28071 z"
         style="fill:#ffffff;fill-opacity:1;stroke:none;stroke-opacity:1"
         inkscape:connector-curvature="0" /><path
         d="m 772.24497,584.58377 c 3.3904,-1.02214 7.71953,-2.89506 9.62028,-4.16205 l 3.4559,-2.30361 -3.74376,-5.1681 c -4.95613,-6.84174 -9.47887,-9.00779 -18.80838,-9.00779 -8.89507,0 -20.07106,4.56207 -23.31885,9.51882 -1.85219,2.8268 -1.82658,3.23493 0.35694,5.68974 6.07639,6.83136 20.0413,9.17034 32.43787,5.43299 z m -37.25737,23.71626 c -8.20508,-3.0139 -15.79719,-9.17446 -19.70636,-15.99057 -3.22701,-5.62668 -3.72499,-7.75413 -3.73516,-15.95707 -0.0214,-17.23591 5.58002,-26.96797 19.45237,-33.79731 7.51036,-3.69734 9.28029,-4.03911 23.39301,-4.51731 14.43993,-0.48928 21.75545,0.48451 29.95539,3.98745 2.01008,0.85867 2.18674,-0.21695 2.17806,-13.26176 -0.015,-22.60257 -3.37332,-37.15252 -10.26951,-44.49317 -3.81427,-4.06011 -7.70179,-3.56491 -22.74372,2.89708 -10.51887,4.51889 -15.32987,5.87665 -22.83389,6.44417 l -9.50714,0.71903 0.63144,-8.82533 c 0.4367,-6.10327 1.49143,-10.2168 3.41966,-13.33673 9.93341,-16.0726 44.29136,-23.12834 63.96786,-13.13643 17.32048,8.7955 26.13642,42.63416 28.14625,108.03513 0.75417,24.54078 0.71715,25.0639 -2.01493,28.47893 -4.06948,5.08672 -13.99488,9.62542 -26.8525,12.27913 -14.02642,2.89494 -46.11658,3.1798 -53.48083,0.47476 z"
         style="fill:#ffffff;fill-opacity:1;stroke:none;stroke-opacity:1"
         id="path4961"
         inkscape:connector-curvature="0" /><path
         id="path4959"
         d="m 613.49045,601.96974 c -5.55601,-5.556 -5.80133,-8.06608 -10.20421,-104.4098 l -0.83435,-18.25726 4.10276,-1.43024 c 2.25651,-0.78662 5.84695,-1.42813 7.97872,-1.42555 4.24395,0.005 11.68397,3.96474 12.77067,6.79664 0.56826,1.48086 1.36413,1.36899 4.64552,-0.65295 7.74664,-4.77337 19.1263,-7.39836 32.07291,-7.39836 15.83143,0 23.78532,2.47459 30.94938,9.62893 4.85959,4.85298 5.3125,5.84782 5.3125,11.66894 0,3.68029 -1.09931,8.9191 -2.60705,12.42393 l -2.60705,6.06026 -10.20545,-4.89397 c -19.72404,-9.45858 -30.52019,-9.31102 -40.31105,0.55095 -8.11421,8.17315 -10.75812,16.77577 -11.39025,37.06096 -0.28923,9.28124 0.22484,25.73436 1.14236,36.56249 l 1.66824,19.6875 h -10.25559 c -7.67465,0 -10.75198,-0.4964 -12.22806,-1.97247 z"
         style="fill:#ffffff;fill-opacity:1;stroke:none;stroke-opacity:1"
         inkscape:connector-curvature="0" /><path
         id="path4931"
         d="m 819.76866,525.55863 c -0.77075,-12.98721 -7.59568,-36.68692 -7.59568,-36.68692 -2.59169,-23.7461 -23.5117,-40.37316 -48.19366,-38.3039 -8.39528,0.70383 -11.50863,1.43908 -23.45842,5.53997 -2.96364,1.01708 -5.65358,1.58409 -5.97763,1.26004 -1.03018,-1.03019 -5.52602,-17.46019 -7.39998,-27.04318 -0.99407,-5.08342 -2.66274,-10.548 -3.70817,-12.14352 -2.30187,-3.51309 -2.55867,-11.7389 -0.36648,-11.7389 0.84386,0 6.42835,5.12289 12.40996,11.38419 5.98161,6.2613 11.6193,11.14126 12.5282,10.84435 3.26408,-1.06622 6.98541,-11.05058 10.49797,-28.16604 1.40445,-6.84338 6.52323,-1.06564 8.58263,9.6875 1.21426,6.34021 5.83522,18.74999 6.98185,18.74999 4.14343,-6.70856 6.89726,-15.32544 10.12121,-22.18749 8.22998,-17.45306 10.31159,-15.70227 12.39809,10.42771 0.75971,9.51426 1.66907,17.76428 2.02079,18.33338 0.74393,1.20371 8.93381,-7.83612 15.85565,-17.5012 3.0654,-4.28029 5.555,-6.56589 6.875,-6.31168 1.89147,0.36426 2.06936,5.54595 2.06936,60.27724 0,43.38135 -0.38895,60.00835 -1.41174,60.34929 -0.88417,0.29473 -1.71712,-2.23551 -2.22895,-6.77084 z"
         style="fill:#ffffff;fill-opacity:1;stroke:none;stroke-opacity:1"
         inkscape:connector-curvature="0" /></g></g></svg>